<svg width="341" height="57" viewBox="0 0 341 57" fill="none" xmlns="http://www.w3.org/2000/svg">
<path d="M99.93 39.98C98.87 40.11 97.86 40.17 96.93 40.17C94.18 40.17 92.11 39.79 90.8 38.98C89.49 38.23 88.61 36.91 88.17 35.16C87.73 33.41 87.54 30.72 87.54 27.15C87.54 23.65 87.79 20.96 88.23 19.2C88.67 17.39 89.54 16.13 90.86 15.32C92.17 14.51 94.24 14.13 96.99 14.13C97.93 14.13 98.93 14.19 99.93 14.32C100.93 14.45 101.81 14.63 102.43 14.82V19.26C100.37 19.01 98.93 18.95 98.24 18.95C96.55 18.95 95.42 19.14 94.8 19.45C94.17 19.76 93.8 20.45 93.61 21.45C93.42 22.45 93.36 24.39 93.36 27.14C93.36 29.89 93.42 31.83 93.61 32.83C93.8 33.83 94.17 34.52 94.8 34.83C95.43 35.14 96.55 35.33 98.24 35.33C99.68 35.33 101.12 35.2 102.5 35.02V39.46C101.87 39.66 100.99 39.85 99.93 39.98Z" fill="#434C64"/>
<path fill-rule="evenodd" clip-rule="evenodd" d="M106.13 35.41C106.5 37.1 107.32 38.29 108.63 39.04C109.94 39.79 112.13 40.16 115.2 40.17C118.33 40.17 120.52 39.79 121.83 39.04C123.14 38.29 123.96 37.04 124.27 35.41C124.58 33.78 124.77 31.03 124.77 27.15C124.77 23.27 124.58 20.52 124.27 18.89C123.96 17.2 123.14 16.01 121.83 15.26C120.52 14.51 118.33 14.13 115.2 14.13C112.13 14.13 109.94 14.51 108.63 15.26C107.26 16.01 106.44 17.2 106.13 18.89C105.82 20.58 105.63 23.33 105.63 27.15C105.63 30.97 105.82 33.72 106.13 35.41ZM118.77 33.03C118.64 34.03 118.33 34.72 117.89 34.97C117.39 35.22 116.51 35.35 115.2 35.35C113.89 35.35 112.95 35.22 112.51 34.97C112.07 34.66 111.76 34.03 111.63 33.03C111.5 32.03 111.44 30.09 111.44 27.15C111.44 24.27 111.5 22.27 111.63 21.27C111.76 20.27 112.07 19.58 112.51 19.33C112.95 19.08 113.89 18.95 115.2 18.95C116.51 18.95 117.45 19.08 117.89 19.33C118.33 19.64 118.64 20.27 118.77 21.27C118.9 22.27 118.96 24.21 118.96 27.15C118.96 30.03 118.9 32.03 118.77 33.03Z" fill="#434C64"/>
<path d="M141.92 39.85L134.47 25.33H134.28V39.85H128.78V14.44H134.6L141.61 27.77H141.8V14.44H147.31V39.85H141.92Z" fill="#434C64"/>
<path d="M156 39.85V19.39H149.99V14.45H167.76V19.39H161.75V39.85H156Z" fill="#434C64"/>
<path d="M170.64 39.85V14.44H185.91V19.2H176.34V24.64H184.54V29.4H176.34V35.09H185.91V39.85H170.64V39.85Z" fill="#434C64"/>
<path d="M203.05 39.85L195.6 25.33H195.41V39.85H189.9V14.44H195.72L202.73 27.77H202.92V14.44H208.43V39.85H203.05Z" fill="#434C64"/>
<path d="M217.07 39.85V19.39H211.06V14.45H228.83V19.39H222.82V39.85H217.07Z" fill="#434C64"/>
<path d="M231.4 39.54V35.03C234.47 35.28 236.59 35.41 237.91 35.41C238.91 35.41 239.72 35.35 240.29 35.28C240.85 35.15 241.29 35.03 241.48 34.78C241.73 34.53 241.86 34.28 241.92 33.97C241.98 33.66 241.98 33.22 241.98 32.59C241.98 31.78 241.92 31.21 241.86 30.9C241.74 30.59 241.55 30.34 241.23 30.15C240.92 30.02 240.42 29.84 239.67 29.77L235.6 29.21C233.72 28.96 232.47 28.21 231.78 27.02C231.09 25.83 230.78 24.14 230.78 21.95C230.78 19.82 231.16 18.2 231.84 17.07C232.53 15.94 233.53 15.19 234.78 14.82C236.03 14.44 237.6 14.26 239.47 14.26C241.79 14.26 244.23 14.51 246.66 15.01V19.45C244.47 19.2 242.47 19.07 240.78 19.07C238.96 19.07 237.78 19.26 237.28 19.57C236.97 19.76 236.78 20.01 236.72 20.32C236.66 20.63 236.6 21.07 236.6 21.76C236.6 22.45 236.66 22.95 236.72 23.26C236.78 23.57 236.97 23.76 237.22 23.89C237.47 24.02 237.91 24.14 238.6 24.27L242.98 24.9C243.98 25.03 244.8 25.28 245.42 25.65C246.05 26.03 246.61 26.59 247.05 27.4C247.55 28.46 247.8 30.03 247.8 32.03C247.8 34.41 247.49 36.16 246.8 37.41C246.11 38.6 245.24 39.41 244.11 39.79C242.98 40.17 241.48 40.35 239.6 40.35C236.47 40.16 233.72 39.91 231.4 39.54Z" fill="#434C64"/>
<path d="M255.62 39.85V19.39H249.67V14.45H267.44V19.39H261.43V39.85H255.62Z" fill="#434C64"/>
<path fill-rule="evenodd" clip-rule="evenodd" d="M281.21 34.78L282.52 39.85H288.34L281.58 14.44H273.57L266.75 39.85H272.51L273.7 34.78H281.21ZM277.33 19.64H277.58L280.02 30.03H274.83L277.33 19.64Z" fill="#434C64"/>
<path d="M302.8 39.98C301.74 40.11 300.74 40.17 299.8 40.17C297.05 40.17 294.98 39.79 293.67 38.98C292.36 38.17 291.48 36.92 291.04 35.16C290.6 33.41 290.41 30.72 290.41 27.15C290.41 23.65 290.66 20.96 291.1 19.2C291.54 17.39 292.41 16.13 293.73 15.32C295.04 14.51 297.11 14.13 299.86 14.13C300.8 14.13 301.8 14.19 302.8 14.32C303.8 14.45 304.68 14.63 305.3 14.82V19.26C303.24 19.01 301.8 18.95 301.11 18.95C299.42 18.95 298.29 19.14 297.67 19.45C297.04 19.76 296.67 20.45 296.48 21.45C296.29 22.45 296.23 24.39 296.23 27.14C296.23 29.89 296.29 31.83 296.48 32.83C296.67 33.83 297.04 34.52 297.67 34.83C298.3 35.14 299.42 35.33 301.11 35.33C302.55 35.33 303.99 35.2 305.37 35.02V39.46C304.74 39.66 303.86 39.85 302.8 39.98Z" fill="#434C64"/>
<path d="M322.07 39.85L316.38 29.34H314.82V39.85H309.13V14.44H314.82V24.51H316.38L322.2 14.44H328.39L321.01 26.58L328.46 39.85H322.07V39.85Z" fill="#434C64"/>
<path d="M52.18 22.83C52.18 23.46 51.68 23.89 51.12 23.89H31.53C30.9 23.89 30.47 23.39 30.47 22.83V20.64C30.47 20.01 30.97 19.58 31.53 19.58H51.12C51.75 19.58 52.18 20.08 52.18 20.64V22.83Z" fill="#DC5344"/>
<path d="M60.94 29.34C60.94 29.97 60.44 30.4 59.88 30.4H35.91C35.28 30.4 34.85 29.9 34.85 29.34V27.15C34.85 26.52 35.35 26.09 35.91 26.09H59.81C60.44 26.09 60.87 26.59 60.87 27.15L60.94 29.34Z" fill="#DC5344"/>
<path d="M67.45 35.91C67.45 36.54 66.95 36.97 66.39 36.97H40.23C39.6 36.97 39.17 36.47 39.17 35.91V33.72C39.17 33.09 39.67 32.66 40.23 32.66H66.32C66.95 32.66 67.38 33.16 67.38 33.72L67.45 35.91Z" fill="#DC5344"/>
<path d="M67.45 42.42C67.45 43.05 66.95 43.48 66.39 43.48H40.23C39.6 43.48 39.17 42.98 39.17 42.42V40.23C39.17 39.6 39.67 39.17 40.23 39.17H66.32C66.95 39.17 67.38 39.67 67.38 40.23L67.45 42.42Z" fill="#DC5344"/>
<path d="M60.94 48.93C60.94 49.56 60.44 49.99 59.88 49.99H35.91C35.28 49.99 34.85 49.49 34.85 48.93V46.74C34.85 46.11 35.35 45.68 35.91 45.68H59.81C60.44 45.68 60.87 46.18 60.87 46.74L60.94 48.93Z" fill="#DC5344"/>
<path d="M52.18 55.5C52.18 56.13 51.68 56.56 51.12 56.56H31.53C30.9 56.56 30.47 56.06 30.47 55.5V53.31C30.47 52.68 30.97 52.25 31.53 52.25H51.12C51.75 52.25 52.18 52.75 52.18 53.31V55.5Z" fill="#DC5344"/>
<path d="M15.2 3.25C15.2 3.88 15.7 4.31 16.26 4.31H35.85C36.48 4.31 36.91 3.81 36.91 3.25V1.06C36.91 0.43 36.41 0 35.85 0H16.33C15.7 0 15.27 0.5 15.27 1.06L15.2 3.25Z" fill="#DC5344"/>
<path d="M6.5 9.75C6.5 10.38 7 10.81 7.56 10.81H31.46C32.09 10.81 32.52 10.31 32.52 9.75V7.56C32.52 6.93 32.02 6.5 31.46 6.5H7.62C6.99 6.5 6.56 7 6.56 7.56V9.75H6.5Z" fill="#DC5344"/>
<path d="M0 16.32C0 16.95 0.5 17.38 1.06 17.38H27.15C27.78 17.38 28.21 16.88 28.21 16.32V14.13C28.21 13.5 27.71 13.07 27.15 13.07H1.06C0.43 13.07 0 13.57 0 14.13V16.32Z" fill="#DC5344"/>
<path d="M0 22.83C0 23.46 0.5 23.89 1.06 23.89H27.15C27.78 23.89 28.21 23.39 28.21 22.83V20.64C28.21 20.01 27.71 19.58 27.15 19.58H1.06C0.43 19.58 0 20.08 0 20.64V22.83Z" fill="#DC5344"/>
<path d="M6.5 29.34C6.5 29.97 7 30.4 7.56 30.4H31.46C32.09 30.4 32.52 29.9 32.52 29.34V27.15C32.52 26.52 32.02 26.09 31.46 26.09H7.62C6.99 26.09 6.56 26.59 6.56 27.15V29.34H6.5Z" fill="#DC5344"/>
<path d="M15.2 35.91C15.2 36.54 15.7 36.97 16.26 36.97H35.85C36.48 36.97 36.91 36.47 36.91 35.91V33.72C36.91 33.09 36.41 32.66 35.85 32.66H16.33C15.7 32.66 15.27 33.16 15.27 33.72L15.2 35.91Z" fill="#DC5344"/>
<path d="M333.59 18.95V15.26H332.28V14.51H335.85V15.26H334.53V18.95H333.59Z" fill="#434C64"/>
<path d="M336.4 18.95V14.44H337.78L338.59 17.51L339.4 14.44H340.78V18.95H339.97V15.45L339.09 18.95H338.21L337.33 15.45V18.95H336.4Z" fill="#434C64"/>
</svg>
